<svg xmlns="http://www.w3.org/2000/svg" width="342" height="268" fill="none">
  <path fill="#fff" d="M284.7 210.85c-.57-5.31-4.39-20.4-8.22-28.6-3.84-8.2-12.15-27.9-13.9-31.56-1.75-3.68-4.8-3.35-11.18-3.38-6.4-.04-28.12.19-46.96.03-18.85-.15-95.23.33-99.7.64-4.47.32-6.88.48-8.94 4.31-2.08 3.83-11.18 22.2-15.19 33.05-3.54 9.63-8.15 23.57-9.16 26.61-.09.19-.16.41-.2.64-.39 1.46-.22 3.42.1 4.03 1.27 2.58 4.47 1.14 17.72 1.22 5.08.04 12.77.25 20.95.49v.86l6.39-1.16h6.42l7.32 1.16 6.34 2.67.58-2.67h17.54c15.1-.04 38.46-.2 46.76-.68a547 547 0 0 1 11.39-.51l7.03-.36 1.06 5.5 5.92-3.81 6.32-2.05 6.79-1.22 6.78.43c3.6-.18 7-.33 9.68-.43 11.66-.45 25.88.84 27.33-1.05.75-1 1.16-2.73.97-4.16h.06ZM99.46 27.63c-5.74 3.47-5.5 10.62-5.88 16-.33 4.85-.07 62.74 0 75.6 0 1.06-.08 4.74-.1 5.78-.05 6.62.98 8.3 16.46 8.08 19.09-.27 96.82 0 96.82 0s35.4-.13 36.44-.07c3.13.21 11.06.35 14.7-3.02 3.2-2.97 2.57-7.8 2.57-7.8V43.08s1-8.92-4.15-13.75c-2.58-2.4-7.12-3.26-11.02-3.52-2.7-.17-61.76-.2-100.28-.05-17.22.07-42.74.15-45.56 1.85v.02Z"/>
  <path fill="#CDF567" d="M328.3 128.88c-4.85-.03-7.47 1.91-7.66 2.07 0-4.49-.03-8.15-.03-8.15 0-1.44-.74-2.87-2.5-4.21-4.34-3.32-14.8-6.43-24.55-4.35-9.75 2.06-15.03 6.19-14.57 10.1l-.03 28.74s-.55 8.27 4.5 10.35c5.06 2.06 10.51 2.97 18.34 3.1 7.82.12 13.79-2.07 16.2-5.06 1.36-1.66 1.97-5.03 2.28-8.21.5.32 1.96 1.01 5.46.67 4.52-.43 9.47-6.55 10.06-14.01.56-7.46-2.41-11-7.47-11.04h-.03Zm-.36 18.15c-2.38 3.65-7.28 2.41-7.28 2.41v-12.9c4.42-4.44 10.53-3.9 10.42.9-.1 4.82-.77 5.95-3.14 9.6Z"/>
  <path fill="#2F3152" d="M103.42 37.87s.37 28.8 0 38.64c-.38 9.85.17 45.53.17 45.53s25.57 1.17 47.09 1.38c21.5.2 70.25 0 70.25 0h27.82s-.19-44.67 0-56.95c.2-12.27 0-28.6 0-28.6s-63.73-.92-75.44-1.11c-11.72-.2-69.88 1.11-69.88 1.11h-.01Zm214.36 89.74s-2.19-7.78-17.82-7.1c-15.63.7-18.47 7.8-18.47 7.8s4.3 4.2 18.14 3.75c13.85-.44 18.15-4.45 18.15-4.45Z"/>
  <path fill="#D6E4F9" d="M220.93 223.17s-.04-.43-.14-1.1l.14 1.1Z"/>
  <path fill="#9473F5" d="m218.23 171.23-.07-.03.05.05.02-.02Z"/>
  <path fill="#9473F5" d="M272.47 193.28s-13.24-32.1-15.22-35.78c-1.96-3.68-7.09-3-13.9-2.75-6.82.26-45.5-.4-65.4 0-19.9.4-66.26.91-70.32 1.05-4.06.14-5.1 3.14-5.1 3.14s-17.05 36.7-19.15 41.03c-2.1 4.33 4.58 3.7 4.58 3.7h27.96l1.38-5.6c.82-6.54.6-13.96.46-17.54-.17-4.66 4.32-9.33 9.51-10.36l-1.1 3.1.88-.53c.63-1.99 1.53-3.88 2.8-5.15 3.63-3.63 9.61-4.87 11.08-2.6 2.99-2.9 6.17-4.23 8.27-3.45 3.28 1.2.69 5.17-1.72 8.63-2.43 3.45-5.35 7.08-4.5 13.82 0 0 1.21-6.91 6.58-12.6 5.36-5.7 9.34-6.57 11.23-5 1.89 1.56-1.72 8.28-5.54 11.4-3.82 3.1-3.46 11.9-3.46 11.9s2.43-.69 3.8-2.6c1.38-1.9 3.63-4.48 7.26-3.28 3.63 1.2-1.03 10.88-5.54 17.45a19.52 19.52 0 0 1-3.75 4.12l1.45.07 50.18.7c-.29-.34-.58-.68-.88-1.08-5.7-7.6-3.8-8.8-7.42-12.6-3.63-3.8-7.09-4.3-5.18-7.25 1.9-2.94 6.91-2.08 10.71 1.03l3.8 3.12s.7-6.74-2.25-10.03c-2.94-3.28-10.37-2.52-10.71-6.27-.31-3.38 8.6-3.99 13.24-2.28.27-.16.55-.3.86-.43l-.3-.18c4.4-2.06 8.14-1.03 11.06 1.03l.16-.05c.45-.34 1.24-.6 2.61-.53 4.37-.4 7.98 1.8 10.6 4.25 7.5-.31 11.16 6.68 13.93 17.9.9 3.67 1.34 7.47 1.53 10.92h.12s23.4.07 26.95 0c3.54-.07-1.58-10.4-1.58-10.4l.03-.02Z"/>
  <path fill="#9473F5" d="M137.93 168.62c.28-.41.55-.83.84-1.2l-1.1 1.23h.25l.01-.03Z"/>
  <path fill="#FDAE1E" d="M110 218.3s4.55-9.05 5.92-14.65c1.38-5.6 1.98-13.82 1.98-13.82s-1.32-12.12 2.1-15.26c4.66-4.3 7.83-4.3 7.83-4.3s2.48-4.45 6.77-5.74c4.28-1.29 6.36.41 6.36.41s5.06-5.19 8.27-3.45c3.22 1.73.36 5.4.36 5.4l-6.33 10.16-.21 5.28 3.17-6.34 4.9-6.2s6.49-5.38 9.7-3.47c3.22 1.9-5.53 11.4-5.53 11.4s-3.08 3.98-3.27 7.95l-.2 3.97 3.47-2.02 3.88-3.75s7.14-1.67 4.7 4.41c-2.44 6.09-8.52 15.42-8.52 15.42l-10.06 6.26-4.78 2.25-2.96 5-1.06 4.87-8.93-3.62-8.9-.65-8.66 1.3v-.8Zm110.79 3.77-2.56-8.32-2.82-2.92-4.22-.7s-5.33-1.8-7.8-6.41c-2.63-4.9-6.47-11.3-6.47-11.3l-5.67-5.38s-1.35-4.38 4.8-3.66c6.13.73 10.2 5.92 10.2 5.92s1.48-7.11-3.16-10.78c-4.44-2.68-11.76-3.42-9.47-6.7 2.28-3.29 10.76-1.67 10.76-1.67l2.15.57s4.8-3.61 11.65.44c0 0 5.2-1.98 10.71 1.84 2.65 1.84 7.45 2.84 7.45 2.84s5.04 3.88 6.72 9c1.69 5.13 3.47 14.82 3.47 14.82l.53 7.4-.37 9.4s-4.07-1.15-11.8.11c-10.97 2.8-13.83 6.77-13.83 6.77l-.27-1.27Z"/>
  <path fill="#fff" d="M146.8 147.29h59.67s-2.82-3.11-3.24-6.57a96.35 96.35 0 0 1-.51-7.63h-49.2l-1.93 7.1-4.78 7.1Z"/>
  <path stroke="#2F3152" stroke-linecap="round" stroke-linejoin="round" stroke-width="1.2" d="M109.98 218.5s4.15-7.6 6.23-14.85 1.72-18.48 1.55-23.14c-.18-4.65 4.31-9.33 9.5-10.36m-1.71 12.1s.17-10.54 4.31-14.68c3.63-3.63 9.63-4.86 11.08-2.6"/>
  <path stroke="#2F3152" stroke-linecap="round" stroke-linejoin="round" stroke-width="1.2" d="M136.6 221.95s.88-8.45 5.54-10.7c4.66-2.26 10.72-3.46 15.2-10.03 4.5-6.56 9.15-16.22 5.54-17.44-3.6-1.22-5.88 1.37-7.25 3.28a7.87 7.87 0 0 1-3.8 2.6s-.35-8.8 3.45-11.91c3.8-3.12 7.43-9.85 5.54-11.4-1.9-1.55-5.88-.69-11.23 5a27.39 27.39 0 0 0-6.57 12.6c-.86-6.74 2.08-10.36 4.49-13.82 2.4-3.45 5-7.42 1.72-8.63-3.29-1.2-9.22 2.67-12.97 9.85-3.75 7.19-2.85 11.74-2.85 11.74m-47.04 72.74c2.34-6.58 6.35-14.61 13.09-20.4m38.52 7.61s1.34 11.48-.38 23.26"/>
  <path stroke="#2F3152" stroke-linecap="round" stroke-linejoin="round" stroke-width="1.2" d="M139.9 227.66s-.7-5.35-7.78-7.94c-7.09-2.6-19.52-2.77-25.06 1.03-5.54 3.8-10.37 15.54-5.7 14.68 4.65-.86 12.08-3.11 22.62 1.03 10.55 4.14 14.52 9.33 15.9 4.14 1.37-5.19 0-12.96 0-12.96l.01.02Zm81.02-4.49s-.68-7.42-3.63-10.7c-2.94-3.29-7.25.17-12.96-7.43-5.71-7.6-3.8-8.8-7.43-12.6-3.63-3.8-7.09-4.31-5.18-7.25 1.91-2.94 6.92-2.08 10.72 1.03l3.8 3.11s.69-6.74-2.26-10.02c-2.94-3.28-10.37-2.53-10.71-6.27-.34-3.75 10.61-4.1 14.58-1.69 3.98 2.43 8.48 6.4 8.22 13.3m30.6 31.95s1.55-12.6-1.2-23.83c-2.78-11.23-6.46-18.22-13.94-17.91m42.38 81.24a61.27 61.27 0 0 0-2.3-5.62c-5.9-12.68-13.13-19.33-13.13-19.33s-9.28-3.39-21.65 2.18c-12.36 5.57-17.71 10.57-17.71 10.57s.22 10.92 1.65 22.5"/>
  <path stroke="#2F3152" stroke-linecap="round" stroke-linejoin="round" stroke-width="1.2" d="M219.12 243.88s-1.43-7.06-1.43-12.75 4.4-9.2 6.9-10.6c6.93-3.94 18.81-6.3 25.36-2.72 6.56 3.58 9.08 9.71 8.53 13.3m-42.44-19.64c-5.28.3-10.03.55-13.07.69-6.59.29-37.25-.25-60.83-.7"/>
  <path stroke="#2F3152" stroke-linecap="round" stroke-linejoin="round" stroke-width="1.2" d="M246.65 216.49c3.61-.17 7-.33 9.68-.43 11.66-.45 25.89.84 27.33-1.05 1.45-1.9 1.6-6.36-.96-6.51-2.56-.16-35.6 1.11-35.6 1.11m-109.96 9.47c2.96.07 5.53.1 7.5.1 11.35 0 46.17-.08 56.71-.68 10.54-.6 18.52-.69 18.52-.69m-106.24-6.96s-38.8-.03-40.88 0c-2.08.03-1.94 4.74-1.44 5.76 1.27 2.58 4.47 1.13 17.73 1.22 5.07.03 12.76.24 20.94.48"/>
  <path stroke="#2F3152" stroke-linecap="round" stroke-linejoin="round" stroke-width="1.2" d="M71.22 212.57s5.36-16.38 9.37-27.24c4-10.87 13.1-29.22 15.19-33.06 2.08-3.83 4.47-3.98 8.94-4.3 4.47-.34 80.85-.8 99.7-.65 18.84.16 40.58-.06 46.96-.03 6.38.03 9.43-.3 11.18 3.39 1.75 3.67 10.06 23.35 13.9 31.55 3.83 8.2 7.65 23.3 8.22 28.6"/>
  <path stroke="#2F3152" stroke-linecap="round" stroke-linejoin="round" stroke-width="1.2" d="M116.2 203.65H87.96s-6.67.63-4.57-3.7c2.1-4.33 19.14-41.02 19.14-41.02s1.05-3.01 5.1-3.15c4.07-.14 50.43-.65 70.33-1.05s58.59.26 65.4 0c6.83-.25 11.94-.9 13.9 2.75 1.96 3.66 15.22 35.79 15.22 35.79s5.1 10.33 1.58 10.4c-3.53.06-26.95 0-26.95 0m-41.91 2.45-51.7-.7m7.56-10.35 36.96-.05m-80.38-34.42-16.69 38.51m84.98-39.24v30.99m61.17-30.99 16.2 38.52m-38.73-39.41 4.71 14.06"/>
  <path stroke="#2F3152" stroke-linecap="round" stroke-linejoin="round" stroke-width="1.2" d="M218.15 171.2c10.89-3.63 17.98 9.5 17.98 9.5"/>
  <path stroke="#2F3152" stroke-linecap="round" stroke-linejoin="round" stroke-width="1.2" d="m205.2 158.98 1.9 11.19c11.6-5.42 18.49 10.53 18.49 10.53m-58.51-20.83-4.2 23.74M132.9 160.6l-2.76 6.32m20.12-1.34 104.25-1M104.65 166l27.52-.25m-12.78 9.55-18.1.06m93.29-.31-36.84.12m100.61-1-27.04.09m11.61 9.62 20.38-.48m-63.08.98 4.99-.12m-41.36.34 28.34-.32m-39.85.6 5.38-.12m-60.77.58 20.94.36m-.27 9.32-26.21.38m175.65-2.56-21.5.3m-22.38 53.76a16.83 16.83 0 0 1 4.52-4.84l-.15.86m1.32 4.88a9.2 9.2 0 0 0-2.94 3.6m2.67 1.95-1.45 2.12m-94.75-10.04c1.28.6 2.38 1.6 3.1 2.8m-4.33 2.41 1.94 2.23m-3.02 3.23 1.7 1.86m-27.36-23.2a8.72 8.72 0 0 1 2.28-6.26m25.46-7.94c.27 2.23.1 4.54-.48 6.7m-8.88 7.5 1.26-2.72m116.8-15.83a12.8 12.8 0 0 1 3.9 5.55m-15.32 14.64a15.75 15.75 0 0 1-2.49-6.04m7.91-13.37a12.2 12.2 0 0 1 2.9 5.86m1.52 3.54.43 1.87m-114.22-1.24.9-2.7M99.46 27.63c-5.75 3.47-5.5 10.62-5.88 16-.33 4.85-.07 62.74 0 75.6 0 1.06-.09 4.74-.1 5.78-.06 6.62.97 8.3 16.45 8.08 19.1-.27 96.82 0 96.82 0s35.41-.13 36.45-.07c3.13.21 11.05.35 14.7-3.02 2.74-2.53 2.56-7.8 2.56-7.8V43.08s1-8.92-4.14-13.75c-2.58-2.4-7.12-3.26-11.03-3.52-2.7-.17-61.75-.2-100.28-.05-17.21.07-42.73.15-45.55 1.85v.02Z"/>
  <path stroke="#2F3152" stroke-linecap="round" stroke-linejoin="round" stroke-width="1.2" d="M202.72 133.07s-.33 10.66 3.33 14.25m-59.52.16s4.49-3.62 6.98-14.41m44.87 4.39s-.19 3.76.95 5.2M103.41 37.87s.38 28.8 0 38.64c-.38 9.85.18 45.53.18 45.53s25.57 1.17 47.08 1.38c21.52.2 70.25 0 70.25 0h27.83s-.19-44.67 0-56.95c.19-12.27 0-28.6 0-28.6s-63.73-.92-75.45-1.11c-11.7-.2-69.87 1.11-69.87 1.11h-.02Z"/>
  <path stroke="#FDAE1E" stroke-linecap="round" stroke-linejoin="round" stroke-width="2.4" d="M121.21 51.5s15.88-.94 20.81 0"/>
  <path stroke="#9473F5" stroke-linecap="round" stroke-linejoin="round" stroke-width="2.4" d="M121.21 59.48s8.69-.47 12.06 0"/>
  <path stroke="#50E1C7" stroke-linecap="round" stroke-linejoin="round" stroke-width="2.4" d="M121.21 67.45s18-.46 21.93 0"/>
  <path stroke="#CDF567" stroke-linecap="round" stroke-linejoin="round" stroke-width="2.4" d="M121.21 75.9s12.2-.25 14.31 0"/>
  <path stroke="#FDAE1E" stroke-linecap="round" stroke-linejoin="round" stroke-width="2.4" d="M142.45 75.9h2.18"/>
  <path stroke="#D6E4F9" stroke-linecap="round" stroke-linejoin="round" stroke-width="2.4" d="M110.46 75.58h2.19m-2.19-8.22h2.19m-2.19-8.23h2.19m-2.19-8.23h2.19m-2.19 32.9h2.19m-2.19 8.23h2.19m-2.19 8.23h2.19m-2.19 8.22h2.19"/>
  <path stroke="#9473F5" stroke-linecap="round" stroke-linejoin="round" stroke-width="2.4" d="M121.21 83.4h6.04"/>
  <path stroke="#FDAE1E" stroke-linecap="round" stroke-linejoin="round" stroke-width="2.4" d="M134 83.4h11.43m-24.22 8.92h7.45M150 51.1s31.68-1 35.66-1"/>
  <path stroke="#CDF567" stroke-linecap="round" stroke-linejoin="round" stroke-width="2.4" d="M140.4 59.27s13.21-.2 16.84 0"/>
  <path stroke="#50E1C7" stroke-linecap="round" stroke-linejoin="round" stroke-width="2.4" d="M163.9 59.17s21.33-.53 30.24 0c8.93.53 12.64-.24 12.64-.24"/>
  <path stroke="#CDF567" stroke-linecap="round" stroke-linejoin="round" stroke-width="2.4" d="M135.38 92.73s21.32-.53 30.23 0c8.92.53 12.64-.24 12.64-.24"/>
  <path stroke="#50E1C7" stroke-linecap="round" stroke-linejoin="round" stroke-width="2.4" d="M140.4 100.85s31.68-.54 35.67-.54"/>
  <path stroke="#CDF567" stroke-linecap="round" stroke-linejoin="round" stroke-width="2.4" d="M121.21 108.57s13.2-.2 16.84 0"/>
  <path stroke="#FDAE1E" stroke-linecap="round" stroke-linejoin="round" stroke-width="2.4" d="M143.34 108.48s21.33-.53 30.24 0c8.9.54 12.64-.24 12.64-.24"/>
  <path stroke="#9473F5" stroke-linecap="round" stroke-linejoin="round" stroke-width="2.4" d="M151.82 67.45s34.44-.94 39.63 0"/>
  <path stroke="#FDAE1E" stroke-linecap="round" stroke-linejoin="round" stroke-width="2.4" d="M197.16 67.04s11.45.46 13.33.2"/>
  <path stroke="#CDF567" stroke-linecap="round" stroke-linejoin="round" stroke-width="2.4" d="M151.37 75.94h50.88c13.18 0 29.62-.5 29.62-.5"/>
  <path stroke="#9473F5" stroke-linecap="round" stroke-linejoin="round" stroke-width="2.4" d="M152.74 83.38s13.84.24 19.95 0c6.1-.24 21.06 0 21.06 0"/>
  <path stroke="#50E1C7" stroke-linecap="round" stroke-linejoin="round" stroke-width="2.4" d="M200.72 83.56s13.88-.47 19.5 0c5.6.46 11.71-.21 11.71-.21m-110.72 17.19h12.71"/>
  <path stroke="#2F3152" stroke-linecap="round" stroke-linejoin="round" stroke-width="1.2" d="M287.98 131.25a13.33 13.33 0 0 1-6.49-2.94c-1.23-1.04-2.32-2.38-2.49-3.95-.46-3.92 4.82-8.04 14.57-10.1 9.75-2.07 20.19 1.03 24.56 4.34 4.36 3.32 2.63 7.3-2.07 10.3-4.37 2.78-17.33 4.14-28.06 2.37l-.02-.02Zm32.64-.27s2.65-2.13 7.7-2.1c5.06.04 8.03 3.58 7.47 11.04-.57 7.46-5.54 13.57-10.06 14-4.53.43-5.38-.55-5.38-.55"/>
  <path stroke="#2F3152" stroke-linecap="round" stroke-linejoin="round" stroke-width="1.2" d="M320.62 136.24s3.4-2.96 7.33-2.9c3.92.04 3.7 7.04 1.97 10.7-1.72 3.66-5.07 6.53-9.3 5.4"/>
  <path stroke="#2F3152" stroke-linecap="round" stroke-linejoin="round" stroke-width="1.2" d="m278.98 124.36-.03 28.74s-.55 8.27 4.5 10.35c5.06 2.08 10.51 2.97 18.34 3.09 7.82.12 13.79-2.06 16.2-5.05 2.4-3 2.5-11.3 2.63-14.54.14-3.25 0-24.14 0-24.14"/>
  <path stroke="#2F3152" stroke-linecap="round" stroke-linejoin="round" stroke-width="1.2" d="M283.83 142.84s-1.2 7.27-.27 8.95m-.02 3.21s.59 2.12 1.1 2.55m29.76 1.6s2.3-2.24 2.38-5.14m1-26.4s-1-4.21-7.67-5.91c-6.67-1.7-14.86-1.84-21.8 1.1-6.94 2.95-6.83 5.5-6.83 5.5m15.15-41.92s-7 4.7-4.08 13.18c2.93 8.47 8.75 11.58 4.66 17.58M302.44 94s-5 2.65-.83 8.26c4.18 5.6 3.03 7.08 3.03 7.08"/>
  <path fill="#fff" d="M62.81 131.73c3.87 5.26 3.85 9.99.91 14.27-3.4 4.95-4.82 10.63-8.75 15.53-4.03 5.03-12.17.05-14.96-1.64-1.34-.81-5.74-4.34-11.58-7.66-6.37-3.64-15.67-8.07-18.3-9.4-7.62-3.85-7.09-8.4-5.7-14.52"/>
  <path fill="#5EE29D" d="M58.92 127.97c5.02 2.56 5.26 6.85 2.94 10.12-3.47 4.9-4.81 10.63-8.75 15.53-4.03 5.03-12.17.05-14.96-1.64-1.33-.81-6.71-5.43-12.55-8.75-6.38-3.64-14.9-6.65-17.32-8.3-1.5-1.02-5.85-3.22-2.88-10.04.97-2.2 8.4-13.62 8.97-14.32 2.51-3.07 5.52-3.27 9.7-1.23 1.98.97 11.74 6.8 18.5 10.4 7.46 3.98 13.72 6.89 16.36 8.23Z"/>
  <path stroke="#2F3152" stroke-linecap="round" stroke-linejoin="round" stroke-width="1.2" d="M58.92 127.97c5.02 2.56 5.26 6.85 2.94 10.12-3.47 4.9-4.81 10.63-8.75 15.53-4.03 5.03-12.17.05-14.96-1.64-1.33-.81-6.71-5.43-12.55-8.75-6.38-3.64-14.9-6.65-17.32-8.3-1.5-1.02-5.85-3.22-2.88-10.04.97-2.2 8.4-13.62 8.97-14.32 2.51-3.07 5.52-3.27 9.7-1.23 1.98.97 11.74 6.8 18.5 10.4 7.46 3.98 13.72 6.89 16.36 8.23h0Z"/>
  <path stroke="#2F3152" stroke-linecap="round" stroke-linejoin="round" stroke-width="1.2" d="M62.81 131.73c3.87 5.26 3.85 9.99.91 14.27-3.4 4.95-4.82 10.63-8.75 15.53-4.03 5.03-12.17.05-14.96-1.64-1.34-.81-5.74-4.34-11.58-7.66-6.37-3.64-15.67-8.07-18.3-9.4-7.62-3.85-7.09-8.4-5.7-14.52m44.91 27.43 1.22 4.5m2.67-6.51 1.22 4.52m-1.48 1.6.73 2.85m-1.67-5.77.27.99m2.65-6.78 2.07 7.4m.39-6.36 1 3.49m-.84-9.62 2.25 7.15m3.35-17.74 2.37 6.62m-3.65-3.75 2.25 6.27"/>
  <path fill="#2F3152" d="M19.5 120.19a12.43 12.43 0 0 1 1.51-2.31c.23-.19.52-.2.86 0 .34.17.5.38.49.6-.02.21-.2.59-.55 1.12-.34.53-.83 1.51-1.47 2.95-.07.17 0 .34.17.5.16.18.76.62 1.78 1.35 1.03.73 1.57 1.15 1.62 1.26.05.04.19-.07.41-.31.22-.25.77-.98 1.65-2.2.89-1.2 1.45-1.85 1.7-1.94.23-.1.46-.07.66.07s.32.33.34.56c.03.23-.08.53-.32.9-.23.37-1 1.48-2.3 3.32a38.91 38.91 0 0 0-2.6 4.02 19.8 19.8 0 0 1-.86 1.57c-.15.19-.32.33-.53.41a.86.86 0 0 1-.64 0 .78.78 0 0 1-.44-.4c-.13-.34.24-1.27 1.12-2.8l.8-1.38a55.74 55.74 0 0 0-3.72-2.62c-.3.52-.66 1.26-1.07 2.21-.4.96-.7 1.55-.92 1.8a.83.83 0 0 1-.78.3c-.25-.06-.44-.16-.54-.3-.14-.19-.1-.66.15-1.41.25-.76.65-1.68 1.22-2.78.24-.47.34-.86.29-1.16-.08-.29 0-.55.25-.79.4-.34.98-1.19 1.75-2.54h-.02Zm12.88 6.9c-.1-.06-.18.02-.24.23-.15.34-.85 1.5-2.1 3.47a98.2 98.2 0 0 1-2.32 3.59c-.3.4-.55.64-.75.7a.97.97 0 0 1-.64-.06.68.68 0 0 1-.42-.45c-.06-.2.11-.66.5-1.36.39-.7 1.25-2.11 2.59-4.23l1.8-2.87-.98-.67c-.5-.34-.82-.63-.94-.87-.13-.23-.08-.53.15-.87a.85.85 0 0 1 .96-.39c.4.09.95.4 1.67.92.7.53 1.17.84 1.39.94.21.1.56.17 1.04.24.49.04.82.1 1 .17.19.08.35.23.49.44.08.2.03.43-.14.73-.18.3-.38.48-.6.55a4 4 0 0 1-1.29 0 4.23 4.23 0 0 1-1.17-.2v-.01Zm5.79 13.53c-.36-.2-.5-.44-.42-.72.08-.27.48-.96 1.18-2.06a13.14 13.14 0 0 0 1.22-2.04c.03-.12-.1-.08-.42.11-.32.2-.84.57-1.57 1.12l-1.6 1.15a4 4 0 0 1-.88.48c-.26.09-.43.1-.53.02-.1-.08-.2-.23-.33-.47a4.86 4.86 0 0 1-.12-1.87c.05-1.01.17-2 .36-2.97.07-.48.08-.74.02-.77-.06-.03-.72.82-1.96 2.58a36.87 36.87 0 0 1-2.34 3.1c-.3.3-.63.38-.94.2a.65.65 0 0 1-.38-.48c-.03-.22.01-.46.14-.7.12-.25.52-.86 1.2-1.85a105.06 105.06 0 0 1 4.89-6.55c.27-.3.57-.52.9-.66.34-.12.61-.1.83.03.2.15.33.3.35.46.03.16-.06.67-.24 1.55a60.14 60.14 0 0 0-.84 5.47c.08.08.91-.47 2.51-1.68 1.6-1.2 2.63-1.9 3.07-2.1.3-.12.58-.14.85-.07.28.07.47.21.55.44.08.22-.13.85-.63 1.9a29.9 29.9 0 0 1-1.77 3.11l-1.39 2.21c-.26.43-.5.74-.72.91-.2.19-.37.29-.51.3a.86.86 0 0 1-.49-.14v-.01Zm9.59-8.03c.11.06.2.2.28.41.07.22.07.42 0 .6a12 12 0 0 1-.82 1.39c-.48.73-1.08 1.72-1.82 2.98a22.01 22.01 0 0 0-1.42 2.73 44.95 44.95 0 0 1 4.15 2.68c.27.27.29.61.07 1.04-.24.41-.55.61-.96.59-.28-.02-1.14-.48-2.57-1.4-1.43-.91-2.23-1.5-2.39-1.76-.27-.49-.24-1.14.1-1.95.34-.82 1.2-2.33 2.54-4.52l1.71-2.74.5-.06c.3-.06.5-.04.62.02v-.01Z"/>
  <path fill="#9473F5" stroke="#2F3152" stroke-linecap="round" stroke-linejoin="round" stroke-width="1.2" d="M58.05 88.82s4.78-4.03 2.94-9.69c0 0 3.64 7.14 8 3.17 0 0-4.7 5.64-2.77 11.26 0 0-3.18-7.02-8.18-4.74h0Z"/>
  <path fill="#fff" stroke="#2F3152" stroke-linecap="round" stroke-linejoin="round" stroke-width="1.2" d="M31.52 191.94s5.82 2.62 10.2-1.57c0 0-4.94 6.49.64 8.75 0 0-7.27-1.83-11.58 2.43 0 0 5.05-6.02.74-9.61h0Z"/>
  <path fill="#D6E4F9" d="M234.24 33.13s1.53 6.63 2.68 9.2c1.16 2.58 2.23 4.09 8.93 6.74 23.99 9.53 68.84 31.96 73.03 33.85 4.51 2.02 9.14.96 11.96-2.95 2.81-3.92 9.25-14.17 10.07-18.04.83-3.87-1.49-6.83-1.49-6.83l-4.71-7.3"/>
  <path fill="#FDAE1E" d="M334.71 47.8c3.37 5.1-2.31 13.96-4.63 18-2.33 4.03-5.58 7.53-9.75 7.99-4.19.45-38.08-17.44-48.24-21.67a325.46 325.46 0 0 0-22.86-8.81c-8.57-3-11.65-4.28-13.84-7.55-2.06-3.06-1.44-4.9 1.22-10.73 2.64-5.83 6.23-12.66 10.45-13.31 4.23-.66 9.7 2.07 14.38 4.02l60.55 25.04s10.38 3.5 12.72 7.03Z"/>
  <path stroke="#2F3152" stroke-linecap="round" stroke-linejoin="round" stroke-width="1.2" d="M334.71 47.8c3.37 5.1-2.31 13.96-4.63 18-2.33 4.03-5.58 7.53-9.75 7.98-4.19.46-38.08-17.43-48.24-21.66a325.46 325.46 0 0 0-22.86-8.81c-8.57-3-11.65-4.28-13.84-7.55-2.06-3.06-1.44-4.9 1.22-10.73 2.64-5.83 7-12.69 11.23-13.34 4.22-.65 13.8 4.35 18.48 6.3 6.26 2.6 45.66 18.7 54.09 22.15.89.36 1.78.7 2.68 1.04 2.73 1.01 9.75 3.81 11.62 6.63h0Z"/>
  <path stroke="#2F3152" stroke-linecap="round" stroke-linejoin="round" stroke-width="1.2" d="M234.24 33.13s1.53 6.63 2.68 9.2c1.16 2.58 2.23 4.09 8.93 6.74 23.99 9.53 68.84 31.96 73.03 33.85 4.51 2.02 9.14.96 11.96-2.95 2.81-3.92 9.25-14.17 10.07-18.04.83-3.87-1.49-6.83-1.49-6.83l-4.71-7.3"/>
  <path stroke="#2F3152" stroke-linecap="round" stroke-linejoin="round" stroke-width="1.2" d="M339.64 65.18a53.27 53.27 0 0 0-3.75-15.57m-1.98 22.17c-.03-.23-.08-.48-.1-.7m-.28-1.8c-.4-2.66-.87-5.19-1.3-7.26m3.83 9.85a83.19 83.19 0 0 0-1.42-9.68m3.21 6.52c-.2-2.58-.44-4.83-.79-6.75m-.35-2a6.7 6.7 0 0 0-.3-1.28"/>
  <path fill="#2F3152" d="M251.86 24.9a9.05 9.05 0 0 1-1 2.72 6.89 6.89 0 0 1-2.01 2.1c-.9.64-1.7.96-2.4.96-.45 0-1.08-.14-1.88-.43-.81-.3-1.32-.56-1.52-.82-.2-.25-.3-.41-.26-.48.04-.23.12-.41.22-.56.1-.14.3-.26.55-.36.26-.1.49-.15.68-.14.18.03.58.19 1.2.46.6.27 1.06.4 1.38.37.37-.02.8-.23 1.28-.63a5.68 5.68 0 0 0 1.73-2.58c.08-.32.16-.86.24-1.61.07-.75.13-1.22.17-1.37.05-.17.2-.33.44-.46.28-.19.55-.24.82-.15.26.08.42.29.49.6.13.54.08 1.32-.14 2.37Zm-2.2 7.37c-.07-.3-.07-.52 0-.65.08-.14.44-.4 1.1-.78a88.3 88.3 0 0 0 4.61-3.3c2.43-1.8 3.78-2.8 4.08-2.99.2-.1.43-.08.68.09.26.16.4.4.44.68.05.3 0 .72-.15 1.28s-.41 1.76-.79 3.61c-.37 1.85-.6 3.1-.72 3.77-.1.66-.21 1.12-.32 1.39-.1.27-.24.44-.41.53-.18.08-.42.08-.71.01a.7.7 0 0 1-.53-.54 2.7 2.7 0 0 1 0-1.08l.13-.89c0-.15 0-.29-.07-.41a1.1 1.1 0 0 0-.2-.23l-.33-.27a9.34 9.34 0 0 0-2.44-1.68l-1.59 1.01c-.77.5-1.31.82-1.64.95-.34.14-.6.16-.78.08-.18-.08-.3-.27-.38-.58h.02Zm8-1.67c.07-.18.28-1.18.63-3a21.06 21.06 0 0 0-2.38 1.86c0 .05.28.26.84.62.57.36.87.53.9.52Zm5.2-2.22c.12-1.28.23-2.03.37-2.24.12-.22.32-.38.6-.49.25-.12.5-.13.71-.03.22.1.35.26.39.5.03.24.01.62-.06 1.16-.07.53-.14 1.5-.2 2.9a96.64 96.64 0 0 0-.09 3.9c0 1.19.05 1.78.12 1.76.27-.22.94-.84 2.03-1.85a76.44 76.44 0 0 1 3.51-3.1l.83-.71c.28-.25.57-.38.9-.4.3-.03.54.07.7.27.15.2.17.45.04.74-.12.28-.96 1.1-2.51 2.45a85.75 85.75 0 0 0-3.9 3.6 28.86 28.86 0 0 1-2.13 1.97c-.36.27-.65.4-.87.4-.31-.03-.51-.16-.62-.39-.1-.24-.13-.65-.1-1.25s.06-1.95.09-4.06c.01-2.13.07-3.84.2-5.12h-.01Zm4.14 11.6c-.08-.3-.08-.52 0-.65.07-.14.43-.4 1.09-.78.65-.4 2.18-1.5 4.62-3.3 2.42-1.8 3.78-2.8 4.07-2.99.2-.1.43-.08.69.08.25.17.4.4.44.69.04.3-.01.72-.16 1.28s-.42 1.76-.79 3.61c-.37 1.85-.6 3.1-.72 3.77-.1.66-.21 1.12-.32 1.39-.1.27-.24.44-.42.53-.17.08-.4.08-.7 0a.67.67 0 0 1-.53-.53 2.7 2.7 0 0 1 0-1.08c.07-.44.11-.73.12-.89a.7.7 0 0 0-.06-.41 1.1 1.1 0 0 0-.2-.23l-.33-.27a9.39 9.39 0 0 0-2.44-1.68l-1.6 1.01c-.76.5-1.3.82-1.63.95-.34.14-.6.16-.78.08-.18-.08-.3-.28-.38-.58h.03Zm7.99-1.67c.08-.18.29-1.19.63-3a20.87 20.87 0 0 0-2.37 1.86c0 .05.27.25.84.62.56.36.87.53.9.52Zm10.22-2.71c1 .43 1.66.9 2 1.4.33.51.4 1.13.2 1.87-.13.48-.3.84-.53 1.1-.23.25-.48.35-.78.3-.3-.05-.5-.16-.6-.34-.07-.2-.1-.49-.06-.87.05-.37.07-.63.03-.78a.69.69 0 0 0-.28-.4c-.74-.57-1.44-.81-2.1-.72-.5.08-.74.26-.73.54 0 .3.35.95 1.05 1.95.69 1 1.14 1.78 1.35 2.31.22.53.3 1 .22 1.38a4.33 4.33 0 0 1-1.55 2.25c-1.84 1.28-3.55.8-5.12-1.44-.76-1.05-.74-1.76.04-2.1.29-.15.55-.16.77-.03.23.13.5.43.84.9a3.45 3.45 0 0 0 1.88 1.41c.13 0 .3-.04.5-.14.31-.18.52-.36.63-.56.11-.2.09-.5-.08-.93a8.4 8.4 0 0 0-1.21-1.88 7.4 7.4 0 0 1-1.26-2.14c-.2-.6-.12-1.22.24-1.84a3.45 3.45 0 0 1 2.4-1.58c.46-.11.78-.15.99-.11.2.04.58.18 1.14.42l.02.02ZM296 41.8c-.08.52-.18.91-.33 1.16a1.04 1.04 0 0 1-1.33.45c-.23-.1-.37-.23-.43-.4-.06-.16-.03-.44.1-.83.17-.75-.27-1.02-1.37-.83-.91.14-1.76.55-2.53 1.24a6 6 0 0 0-1.67 2.34 2.85 2.85 0 0 0 0 2.32c.4.84 1.13 1.13 2.17.87.6-.13 1.03-.3 1.32-.5.37-.22.7-.24 1-.06.3.19.4.47.32.86-.11.58-.86 1.09-2.22 1.5-1.88.55-3.24.2-4.06-1.05a4.35 4.35 0 0 1-.57-3.44 7.48 7.48 0 0 1 2.06-3.66 6.92 6.92 0 0 1 3.94-2.24c.73-.14 1.22-.2 1.45-.18.24.03.61.15 1.13.38.53.24.84.51.95.83.12.3.15.71.07 1.23v.01Zm3.29 13.54c-.3-.13-.45-.36-.48-.72-.04-.23-.26-1.07-.68-2.52a25.83 25.83 0 0 0-.77-2.45c-.04-.07-.31.36-.83 1.3a19.2 19.2 0 0 1-.97 1.65.88.88 0 0 1-.56.3c-.33.09-.59.02-.76-.2a.75.75 0 0 1-.14-.73c.09-.27.41-.96.98-2.07.57-1.11.85-1.82.83-2.12 0-.3.1-.54.3-.7.2-.18.68-1 1.46-2.48a24.96 24.96 0 0 1 1.34-2.43c.21-.26.46-.42.74-.49a.77.77 0 0 1 .71.16c.2.17.44.26.7.27.56 0 1.1.2 1.65.6.54.41 1.05 1.02 1.53 1.83s.7 1.54.67 2.18c-.03.63-.36 1.21-1 1.74-.45.36-.96.61-1.53.77a7.4 7.4 0 0 1-2.18.17l-.87-.02c.87 2.67 1.3 4.31 1.3 4.95-.02.3-.06.5-.13.6-.07.1-.22.24-.5.4a.82.82 0 0 1-.81.02Zm3.06-10.09a2.94 2.94 0 0 0-1.07-1.09 2.9 2.9 0 0 0-1.29-.17 23.07 23.07 0 0 0-1.44 3c.02.11.42.24 1.2.36.78.13 1.43.16 1.97.1.53-.06.9-.16 1.11-.3.2-.13.28-.35.21-.62a4.7 4.7 0 0 0-.68-1.28Zm6.59.32c.27.12.44.3.5.53.06.23-.17.97-.7 2.22a61.55 61.55 0 0 1-2.39 4.68 71.15 71.15 0 0 0-1.92 3.68c-.26.56-.51.92-.77 1.06-.22.1-.48.1-.77 0-.3-.1-.45-.25-.49-.46-.05-.21.2-.89.74-2.04a52.26 52.26 0 0 1 2.1-3.93c.84-1.47 1.5-2.77 1.95-3.89.45-1.13.8-1.76 1.02-1.9.22-.09.46-.07.73.04v.01Zm4.4 1.02 1.27.56c.69.36 1.22.78 1.58 1.27.37.5.62 1.2.77 2.1a6.4 6.4 0 0 1-.07 2.59c-.2.79-.57 1.38-1.07 1.77-.5.38-1.24.6-2.21.64a8.51 8.51 0 0 1-2.92-.38l-.93-.27-.68 1.33c-.28.58-.5.97-.63 1.15-.13.19-.3.32-.51.4-.37.19-.66.2-.87.05-.21-.15-.3-.45-.24-.9.02-.27.88-1.96 2.58-5.07 1.7-3.1 2.68-4.77 2.94-5 .05-.05.12-.1.19-.12l.2-.1a.44.44 0 0 1 .21-.04h.18c.06-.03.13-.02.22.01h-.01Zm-.06 2.03c-1.57 2.7-2.36 4.17-2.4 4.4.1.23.72.4 1.84.52 1.12.11 1.81.08 2.08-.1.25-.15.36-.65.33-1.5a4.42 4.42 0 0 0-.41-1.94c-.25-.44-.73-.9-1.44-1.38Zm9.46 6.02c-.11-.05-.19.04-.24.25-.12.34-.74 1.52-1.85 3.56s-1.8 3.27-2.07 3.7c-.27.42-.51.67-.71.73a1 1 0 0 1-.66 0 .65.65 0 0 1-.45-.4c-.08-.2.06-.66.4-1.37.34-.72 1.11-2.17 2.3-4.35l1.6-2.95-1.04-.58c-.54-.3-.88-.55-1.02-.78-.15-.22-.12-.51.09-.87.21-.35.52-.5.93-.45.42.06 1 .31 1.77.77a10 10 0 0 0 1.48.8c.23.08.6.13 1.08.16.5 0 .84.04 1.03.1.2.05.37.19.53.39.09.18.06.42-.08.72-.15.3-.34.5-.56.58a4.1 4.1 0 0 1-1.31.1 4.19 4.19 0 0 1-1.2-.11h-.02Z"/>
  <path fill="#fff" d="M14.03 56.08s6.58 6.26 11.78 5.1c5.2-1.15 17.46-6.47 26.02-9.6 10.33-3.78 9.18-7.9 8.65-10.55-.54-2.7-2.37-5.9-3.72-10.29-1.35-4.4-2.98-11.27-5.67-13.11-5-3.44-9.26-2.03-9.26-2.03"/>
  <path fill="#CDF567" d="M10.95 27.88c-5.3 2.07-3.93 6.08-3.05 10.26 1.94 9.17 3.42 15.68 6.21 17.58 4.06 2.77 24.26-5.97 28.2-7.95 3.95-1.98 13.22-4.22 10.64-11.74-2.58-7.5-2.85-6.34-4.5-11.45-1.71-5.31-3.16-10.97-10.12-8.21-6.95 2.76-22.08 9.43-27.38 11.5v.01Z"/>
  <path stroke="#2F3152" stroke-linecap="round" stroke-linejoin="round" stroke-width="1.2" d="M10.95 27.88c-5.3 2.08-3.93 6.08-3.05 10.26 1.95 9.17 3.43 15.68 6.21 17.58 4.06 2.77 22.57-5.54 28.2-7.95 3.95-1.98 13.62-3.44 11.04-10.95s-3.06-7.73-4.7-12.83c-1.72-5.31-3.36-10.38-10.32-7.62-6.95 2.76-22.08 9.43-27.38 11.5v.01Z"/>
  <path stroke="#2F3152" stroke-linecap="round" stroke-linejoin="round" stroke-width="1.2" d="M12.85 54.43s5.57 8 13.44 6.74c5.21-1.18 16.27-6.05 24.86-9.23 10.35-3.84 9.66-8.7 9.13-11.38-.53-2.72-2.36-5.94-3.69-10.38-1.34-4.43-2.5-10.91-6.45-13.16-5.04-2.86-9.92-1.24-9.92-1.24M46.1 9.4l-.47 2.2m-6.67-1.49s.59 1.38.58 2.13"/>
  <path stroke="#2F3152" stroke-linecap="round" stroke-linejoin="round" stroke-width="1.2" d="M18.53 56.41s2.75 3.15 7.76 4.76m-4.69-5.65c2.5 2.25 7.7 4.6 7.7 4.6m-4.42-5.29a56.3 56.3 0 0 0 4.4 2.73m.97-1.83 4.24 2.59m1.05-1.82 1.66.9m-6.98-4.37 3.3 2.03"/>
  <path fill="#2F3152" d="M22.44 34.4c.36.37.59.68.68.93.1.26.08.5-.05.71-.12.22-.32.38-.56.47-.26.1-.46.12-.63.06a1.57 1.57 0 0 1-.61-.58c-.47-.58-1.02-.44-1.67.42a4 4 0 0 0-.87 2.5c-.01.95.21 1.8.67 2.56a2.94 2.94 0 0 0 1.85 1.43c.97.23 1.74-.1 2.31-.96.33-.49.52-.89.57-1.2.09-.4.32-.64.68-.73.37-.1.68.01.93.3.4.44.25 1.25-.42 2.44-.95 1.62-2.22 2.33-3.84 2.13a4.8 4.8 0 0 1-3.18-1.71 6.06 6.06 0 0 1-1.44-3.64 6.2 6.2 0 0 1 .18-2.25c.18-.62.49-1.23.92-1.81.43-.59.74-.95.93-1.1.2-.15.57-.33 1.14-.54.57-.22 1.03-.26 1.36-.14.34.1.69.33 1.05.7Zm4.85-3.12a5.87 5.87 0 0 1 2.6-.49c.65.08 1.2.41 1.65 1 .3.38.47.72.5 1.03a.7.7 0 0 1-.33.72c-.26.17-.5.23-.7.19a2.04 2.04 0 0 1-.75-.49 2.5 2.5 0 0 0-.61-.5.84.84 0 0 0-.52-.04c-1.02.16-1.73.49-2.13.99-.3.39-.33.66-.1.84.25.17 1.03.33 2.35.47 1.32.15 2.27.3 2.86.48.6.18 1.02.41 1.27.7.26.29.45.66.57 1.13.13.46.16.9.1 1.3-.31 2.03-1.96 2.9-4.92 2.61-1.4-.13-1.96-.56-1.67-1.3.1-.3.29-.48.56-.55.26-.08.71-.09 1.34-.02a4.52 4.52 0 0 0 2.51-.42c.11-.1.2-.23.27-.44.08-.31.08-.57.01-.77-.07-.2-.35-.37-.8-.52-.47-.15-1.28-.25-2.41-.31a9.71 9.71 0 0 1-2.66-.45 2.1 2.1 0 0 1-1.3-1.28c-.31-.82-.15-1.68.49-2.6.24-.39.46-.63.63-.75.18-.12.57-.3 1.19-.53Zm8.14-3.06a5.87 5.87 0 0 1 2.61-.5c.65.08 1.2.41 1.65 1 .3.38.47.72.5 1.03a.7.7 0 0 1-.33.72c-.26.17-.5.23-.7.2a1.87 1.87 0 0 1-.75-.5 2.5 2.5 0 0 0-.61-.49.83.83 0 0 0-.52-.04c-1.02.15-1.73.48-2.13.98-.3.39-.33.67-.1.84.25.17 1.03.33 2.35.47 1.32.15 2.28.3 2.86.48.6.18 1.02.41 1.27.7.25.3.45.66.57 1.13.13.47.16.9.1 1.3-.32 2.03-1.96 2.9-4.92 2.62-1.4-.14-1.96-.57-1.67-1.31a.8.8 0 0 1 .56-.55c.26-.08.71-.08 1.34-.02a4.65 4.65 0 0 0 2.51-.42c.1-.1.2-.23.27-.43.08-.32.08-.58 0-.77-.07-.2-.34-.37-.8-.52a11.2 11.2 0 0 0-2.4-.32 9.71 9.71 0 0 1-2.67-.44 2.1 2.1 0 0 1-1.3-1.28c-.3-.82-.14-1.68.5-2.6.24-.38.45-.63.63-.75s.57-.3 1.18-.52v-.01Z"/>
  <path stroke="#2F3152" stroke-linecap="round" stroke-linejoin="round" stroke-width="1.2" d="M52.45 11.31s-.15 1.14-1.3 1.83"/>
  <path fill="#5EE29D" stroke="#2F3152" stroke-linecap="round" stroke-linejoin="round" stroke-width="1.2" d="M326.86 189.9s-9.51 7.02-17.14 14.76l9.15.5-16.62 14.28L332.87 203l-10.96-3.18 4.95-9.92Z"/>
</svg>
